<svg xmlns="http://www.w3.org/2000/svg" width="19.395" height="12.707" viewBox="0 0 19.395 12.707"><defs><style>.a{fill:#41479b;}.b{fill:#f5f5f5;}.c{fill:#ff4b55;}</style></defs><g transform="translate(0 -88.276)"><path class="a" d="M19.06,100.983H.334A.334.334,0,0,1,0,100.648V88.61a.334.334,0,0,1,.334-.334H19.06a.334.334,0,0,1,.334.334v12.038A.334.334,0,0,1,19.06,100.983Z" transform="translate(0 0)"/><path class="b" d="M19.394,88.61a.334.334,0,0,0-.334-.334h-1.5l-6.195,4.059V88.276H8.025v4.059L1.83,88.276H.334A.334.334,0,0,0,0,88.61v.865l5.315,3.482H0V96.3H5.315L0,99.783v.865a.334.334,0,0,0,.334.334h1.5l6.195-4.059v4.059h3.344V96.924l6.195,4.059h1.5a.334.334,0,0,0,.334-.334v-.865L14.08,96.3h5.315V92.957H14.08l5.315-3.482Z" transform="translate(0 0)"/><g transform="translate(0 88.276)"><path class="c" d="M19.394,93.626H10.7v-5.35H8.694v5.35H0v2.006H8.694v5.35H10.7v-5.35h8.694Z" transform="translate(0 -88.276)"/><path class="c" d="M7.019,300.138.25,304.532a.33.33,0,0,0,.325.288h.461l7.212-4.681H7.019Z" transform="translate(-0.241 -292.113)"/><path class="c" d="M315.188,300.138H313.96l7.2,4.674a.331.331,0,0,0,.3-.328v-.275Z" transform="translate(-302.067 -292.113)"/><path class="c" d="M0,89.808l6.128,3.978H7.356L.195,89.137a.333.333,0,0,0-.195.3Z" transform="translate(0 -89.104)"/><path class="c" d="M301.366,92.958l6.785-4.4a.33.33,0,0,0-.323-.277h-.479l-7.212,4.681Z" transform="translate(-288.769 -88.277)"/></g></g></svg>