<svg xmlns="http://www.w3.org/2000/svg" width="56" height="23.033" viewBox="0 0 56 23.033"><defs><style>.a{fill:#1b1b1b;}.a,.b{fill-rule:evenodd;}.b{fill:#e62117;}</style></defs><g transform="translate(-26.053 -161.14)"><g transform="translate(26.053 165.06)"><path class="a" d="M30,199.209l-1.589-5.87H26.053c.472,1.386.963,2.778,1.435,4.165a36.837,36.837,0,0,1,1.368,4.728v6.053h2.238v-6.053l2.692-8.893H31.523Zm15.215-2.061v8.513c-.447.632-.871.945-1.274.945-.271,0-.429-.16-.474-.472a4.731,4.731,0,0,1-.024-.785v-8.2H41.428v8.807a5.627,5.627,0,0,0,.179,1.656,1.237,1.237,0,0,0,1.3.828,3.241,3.241,0,0,0,2.306-1.368v1.215H47.23V197.148H45.212Zm-8.426-.134a2.746,2.746,0,0,0-2.349,1.141,4.325,4.325,0,0,0-.632,2.624v3.9a4.312,4.312,0,0,0,.632,2.619,3,3,0,0,0,4.7,0,4.359,4.359,0,0,0,.626-2.619v-3.9a4.373,4.373,0,0,0-.626-2.624A2.75,2.75,0,0,0,36.786,197.014Zm.963,8.045c0,1.031-.312,1.546-.963,1.546s-.963-.515-.963-1.546v-4.685c0-1.03.312-1.544.963-1.544s.963.514.963,1.544v4.685Z" transform="translate(-26.053 -193.339)"/></g><g transform="translate(49.007 161.14)"><path class="b" d="M242.174,170.683q-1,0-1,1.528v1.021h2v-1.021C243.17,171.192,242.835,170.683,242.174,170.683Zm-7.41,0a1.435,1.435,0,0,0-1,.486v6.717a1.427,1.427,0,0,0,1,.491c.576,0,.869-.491.869-1.487v-4.7C235.633,171.192,235.339,170.683,234.763,170.683Zm12.293-5.838a4.174,4.174,0,0,0-3.572-3.247,104.65,104.65,0,0,0-11.612-.458h-1.525a104.619,104.619,0,0,0-11.612.458,4.173,4.173,0,0,0-3.571,3.247,35.428,35.428,0,0,0-.582,7.812v.185a34.575,34.575,0,0,0,.575,7.626,4.173,4.173,0,0,0,3.571,3.247,104.7,104.7,0,0,0,11.624.458h1.5a104.7,104.7,0,0,0,11.625-.458,4.174,4.174,0,0,0,3.572-3.247,34.937,34.937,0,0,0,.579-7.7v-.109A35.424,35.424,0,0,0,247.056,164.845Zm-23.048,2.487h-2.391v12.709h-2.222V167.332h-2.349v-2.082h6.962Zm6.034,12.709h-2v-1.2a3.2,3.2,0,0,1-2.282,1.354,1.226,1.226,0,0,1-1.287-.819,5.635,5.635,0,0,1-.176-1.639v-8.716h2v8.115a6.1,6.1,0,0,0,.019.777c.049.309.2.467.467.467.4,0,.819-.309,1.263-.934v-8.425h2Zm7.587-3.308a8.884,8.884,0,0,1-.2,2.222,1.583,1.583,0,0,1-1.6,1.238,2.719,2.719,0,0,1-2.064-1.22v1.068h-2V165.249h2v4.831a2.7,2.7,0,0,1,2.064-1.195,1.582,1.582,0,0,1,1.6,1.244,8.565,8.565,0,0,1,.2,2.215v4.388Zm7.537-1.839h-3.993v1.955c0,1.02.333,1.529,1.019,1.529a.858.858,0,0,0,.892-.8,12.858,12.858,0,0,0,.044-1.352h2.037v.292c0,.642-.024,1.087-.042,1.286a2.824,2.824,0,0,1-.467,1.2,2.761,2.761,0,0,1-2.414,1.195,2.859,2.859,0,0,1-2.417-1.129,4.262,4.262,0,0,1-.642-2.592v-3.86a4.293,4.293,0,0,1,.618-2.6,2.84,2.84,0,0,1,2.392-1.13,2.774,2.774,0,0,1,2.356,1.13,4.335,4.335,0,0,1,.617,2.6v2.281Z" transform="translate(-214.582 -161.14)"/></g></g></svg>