<svg xmlns="http://www.w3.org/2000/svg" width="18.137" height="18.137" viewBox="0 0 18.137 18.137"><defs><style>.a{fill:#4d4d4d;}</style></defs><g transform="translate(0 0)"><g transform="translate(0 0)"><path class="a" d="M12.469,0h-6.8A5.668,5.668,0,0,0,0,5.668v6.8a5.668,5.668,0,0,0,5.668,5.668h6.8a5.668,5.668,0,0,0,5.668-5.668v-6.8A5.668,5.668,0,0,0,12.469,0Zm3.967,12.469a3.972,3.972,0,0,1-3.967,3.967h-6.8A3.972,3.972,0,0,1,1.7,12.469v-6.8A3.972,3.972,0,0,1,5.668,1.7h6.8a3.972,3.972,0,0,1,3.967,3.967Z" transform="translate(0 0)"/></g><g transform="translate(4.534 4.534)"><path class="a" d="M132.534,128a4.534,4.534,0,1,0,4.534,4.534A4.534,4.534,0,0,0,132.534,128Zm0,7.368a2.834,2.834,0,1,1,2.834-2.834A2.838,2.838,0,0,1,132.534,135.368Z" transform="translate(-128 -128)"/></g><g transform="translate(13.338 3.59)"><circle class="a" cx="0.604" cy="0.604" r="0.604"/></g></g></svg>