<svg xmlns="http://www.w3.org/2000/svg" width="16.294" height="19.155" viewBox="0 0 16.294 19.155"><defs><style>.a{fill:#bfbfbf;}</style></defs><g transform="translate(-36.073)"><g transform="translate(36.073)"><path class="a" d="M141.152,10.321h.127a3.66,3.66,0,0,0,2.8-1.21c1.527-1.722,1.273-4.673,1.246-4.954A4.047,4.047,0,0,0,143.4.559,4.41,4.41,0,0,0,141.263,0H141.2a4.417,4.417,0,0,0-2.134.543,4.049,4.049,0,0,0-1.948,3.614c-.028.282-.282,3.233,1.246,4.954A3.646,3.646,0,0,0,141.152,10.321Zm-2.979-6.065c0-.012,0-.024,0-.032.131-2.844,2.15-3.15,3.015-3.15h.048c1.071.024,2.892.46,3.015,3.15a.077.077,0,0,0,0,.032c0,.028.282,2.725-.98,4.145a2.6,2.6,0,0,1-2.043.849h-.04a2.591,2.591,0,0,1-2.039-.849C137.9,6.989,138.169,4.28,138.173,4.256Z" transform="translate(-133.075)"/><path class="a" d="M52.365,264.177v-.012c0-.032,0-.063,0-.1-.024-.785-.075-2.622-1.8-3.209l-.04-.012a11.446,11.446,0,0,1-3.292-1.5.535.535,0,1,0-.615.877,12.354,12.354,0,0,0,3.622,1.654c.924.329,1.027,1.317,1.055,2.221a.8.8,0,0,0,0,.1,7.2,7.2,0,0,1-.083,1.226,14.6,14.6,0,0,1-6.993,1.626,14.682,14.682,0,0,1-7-1.63,6.816,6.816,0,0,1-.083-1.226c0-.032,0-.063,0-.1.028-.9.131-1.892,1.055-2.221a12.471,12.471,0,0,0,3.622-1.654.535.535,0,0,0-.615-.877,11.32,11.32,0,0,1-3.292,1.5l-.04.012c-1.722.591-1.773,2.428-1.8,3.209a.8.8,0,0,1,0,.1v.012a6.083,6.083,0,0,0,.2,1.8.509.509,0,0,0,.206.25,15,15,0,0,0,7.743,1.9,15.049,15.049,0,0,0,7.743-1.9.531.531,0,0,0,.206-.25A6.382,6.382,0,0,0,52.365,264.177Z" transform="translate(-36.073 -248.961)"/></g></g></svg>