<svg xmlns="http://www.w3.org/2000/svg" width="20.793" height="15.838" viewBox="0 0 20.793 15.838"><defs><style>.a{fill:#bfbfbf;}</style></defs><g transform="translate(0 -61)"><g transform="translate(0 61)"><path class="a" d="M18.966,61H1.828A1.831,1.831,0,0,0,0,62.828V75.011a1.83,1.83,0,0,0,1.828,1.828H18.966a1.83,1.83,0,0,0,1.828-1.828V62.828A1.83,1.83,0,0,0,18.966,61Zm-.252,1.218L10.435,70.5,2.086,62.218ZM1.218,74.759V63.074l5.867,5.817Zm.861.861,5.871-5.871,2.057,2.04a.609.609,0,0,0,.86,0l2.006-2.006,5.839,5.839Zm17.495-.861-5.839-5.839,5.839-5.839Z" transform="translate(0 -61)"/></g></g></svg>